<svg viewBox="0 0 900 600" width="900" height="600"
    xmlns="http://www.w3.org/2000/svg"
    xmlns:xlink="http://www.w3.org/1999/xlink" version="1.1">
    <g transform="translate(448.46030351962094 282.9462121529658)">
        <path id="blob-1" d="M203.1 -47.5C228.7 12.7 191 111.9 131.1 147.8C71.1 183.6 -11.2 156.1 -84.3 105.5C-157.4 54.9 -221.4 -18.9 -205.8 -65.4C-190.2 -111.8 -95.1 -130.9 -3.2 -129.9C88.8 -128.8 177.5 -107.7 203.1 -47.5" fill="#f2cfd3">
        </path>
    </g>

    <g transform="translate(469.87416523019806 327.6435149900009)" style="visibility: hidden">
        <path id="blob-2" d="M161.2 -77.4C175.9 -7.1 132 57.1 68.2 106.5C4.3 155.9 -79.5 190.4 -135.8 156.7C-192 123 -220.6 21 -193.4 -66.5C-166.1 -154 -83.1 -227 -4.9 -225.4C73.2 -223.8 146.5 -147.6 161.2 -77.4" fill="#f2cfd3">
        </path>
    </g>
</svg>