<?xml version="1.0" encoding="UTF-8"?>
<svg id="BG"
  xmlns="http://www.w3.org/2000/svg" viewBox="0 0 101.95 95.06">
  <defs>
    <style>
      .cls-1 {
        fill: #f6dfe2;
      }
    </style>
  </defs>
  <path class="cls-1" d="m88.32,75.48c-4.7,5.37-9.87,10.32-13.72,16.41-1.54,2.45-4.09,3.19-6.93,3.17-11.31-.06-22.62-.06-33.93-.09-2.23,0-4.6-.24-5.81-2.24-4.7-7.74-11.76-13.53-17.01-20.78C-.5,56.2,3.38,34.52,19.9,21.51c2.99-2.35,6.3-4.29,9.47-6.4,2.59-1.73,3.66-3.39,1.25-6.43C27.37,4.55,29.39.48,34.79.17c5.14-.29,10.31-.03,15.46-.02h4.08c3.99-.03,7.99-.29,11.97-.06,6.09.36,7.93,4,4.71,9.11-2.06,3.26-.17,4.92,2.28,6.39,7.35,4.41,13.82,9.66,18.39,17.12,8.84,14.42,7.72,30.09-3.36,42.77Z"/>
  <path class="cls-1" d="m75.4,93.36c-15.72.21-31.44.09-47.15.08-25.59,0-35.13-21.8-23.05-42.32,3.77-6.42,7.23-13.21,12.93-18.4,3.09-2.81,2.32-6.42.98-9.89-4.18-9.32-.97-15.51,4.96-18.81.01-.01,6.7-2.39,7.04-2.45,3.21-.62,9.74-1.45,9.79-1.46.33-.09,25-.43,29.3.97,6.64,2.15,9.38,5.68,7.62,12.11-1.88,6.9.71,11.61,5.03,16.37,8.15,9,15.96,18.15,18.5,30.7,3.46,17.15-8.52,32.88-25.96,33.11Z"/>
</svg>