<?xml version="1.0" encoding="UTF-8"?>
<svg id="BG" xmlns="http://www.w3.org/2000/svg" viewBox="0 0 101.95 93.49">
  <defs>
    <style>
      .cls-1 {
        fill: #f6dfe2;
      }
    </style>
  </defs>
  <path class="cls-1" d="m75.4,93.36c-15.72.21-31.44.09-47.15.08-25.59,0-35.13-21.8-23.05-42.32,3.77-6.42,7.23-13.21,12.93-18.4,3.09-2.81,2.32-6.42.98-9.89-4.18-9.32-.97-15.51,4.96-18.81.01-.01,6.7-2.39,7.04-2.45,3.21-.62,9.74-1.45,9.79-1.46.33-.09,25-.43,29.3.97,6.64,2.15,9.38,5.68,7.62,12.11-1.88,6.9.71,11.61,5.03,16.37,8.15,9,15.96,18.15,18.5,30.7,3.46,17.15-8.52,32.88-25.96,33.11Z"/>
</svg>