<?xml version="1.0" encoding="UTF-8"?>
<svg id="BG" xmlns="http://www.w3.org/2000/svg" viewBox="0 0 99.81 102.65">
  <defs>
    <style>
      .cls-1 {
        fill: #f6dfe2;
      }
    </style>
  </defs>
  <path class="cls-1" d="m99.32,74.16c-.75,2.65-1.23,5.43-2.31,7.94-5.43,12.5-15.98,17.85-28.65,20.11-7.37.55-14.75.61-22.12-.03-7.12-.56-14.25-.85-21.24-2.62C6.03,94.76-2.32,82.45.55,62.98c2.53-17.19,10.21-31.44,24.27-42.01,2.13-1.6,4.54-2.91,1-6-5.2-4.54-4.02-9.11,2.51-11.58.73-.27,4.2-1.12,4.32-1.14h.02C39.76.83,49.13-.56,56.26.22c8.53.92,11.68,4.33,11.71,12.84.01,2.82,1,4.62,3.33,6.12,4.46,2.86,9.09,5.58,13.09,9,8.81,7.55,13.5,17.43,14.98,28.88.56,5.7.62,11.4-.05,17.1Z"/>
</svg>