<?xml version="1.0" encoding="UTF-8"?>
<svg id="BG" xmlns="http://www.w3.org/2000/svg" viewBox="0 0 93.18 95.06">
  <defs>
    <style>
      .cls-1 {
        fill: #f6dfe2;
      }
    </style>
  </defs>
  <path class="cls-1" d="m83.94,75.48c-4.7,5.37-9.87,10.32-13.72,16.41-1.54,2.45-4.09,3.19-6.93,3.17-11.31-.06-22.62-.06-33.93-.09-2.23,0-4.6-.24-5.81-2.24-4.7-7.74-11.76-13.53-17.01-20.78C-4.88,56.2-1,34.52,15.52,21.51c2.99-2.35,6.3-4.29,9.47-6.4,2.59-1.73,3.66-3.39,1.25-6.43C22.99,4.55,25.01.48,30.41.17c5.14-.29,10.31-.03,15.46-.02h4.08c3.99-.03,7.99-.29,11.97-.06,6.09.36,7.93,4,4.71,9.11-2.06,3.26-.17,4.92,2.28,6.39,7.35,4.41,13.82,9.66,18.39,17.12,8.84,14.42,7.72,30.09-3.36,42.77Z"/>
</svg>