<?xml version="1.0" encoding="UTF-8"?>
<svg id="BG" xmlns="http://www.w3.org/2000/svg" viewBox="0 0 90.4 92.99">
  <defs>
    <style>
      .cls-1 {
        fill: #f6dfe2;
      }
    </style>
  </defs>
  <path class="cls-1" d="m87.09,75.49c4.56,8.26,2.44,13.09-6.78,15.27-4.07.95-8.28,1.64-12.43,1.74-18.18.46-36.36,1.25-54.49-1.23-11.72-1.6-14.79-6.91-8.85-16.82,2.26-3.76,1.44-6.24-.97-9.35-4.85-6.22-4.78-7.79.36-13.92,3.5-4.15,5.3-8.02,1.05-12.9-2.92-3.35-2.2-6.94,1.14-9.84,1.75-1.53,3.6-2.93,5.47-4.35,4.35-3.28,5.62-6.84,2.37-11.93C9.31,4.94,10.88,1.76,19.51.83,24.62.27,40.74.04,45.02,0c.35-.01,12.7.03,12.84.03.62.04,1.28.07,2,.1.08,0,.15.01.22.01.01,0,.04,0,.06.01.56.01,1.16.04,1.79.07,4.18.18,8.38-.28,12.52.91,4.99,1.46,6.38,4.09,3.81,8.82-4.64,8.59-4.22,10.3,3.34,16.25,7.35,5.76,7.57,6.38,2.72,13.92-2.45,3.81-1.09,6.85,1.53,9.35,5.83,5.55,6,11.05.83,17.03-2.64,3.06-1.28,5.94.41,8.98Z"/>
</svg>