<?xml version="1.0" encoding="UTF-8"?>
<svg id="BG" xmlns="http://www.w3.org/2000/svg" viewBox="0 0 102.35 184.39">
  <defs>
    <style>
      .cls-1 {
        fill: #f7f7f7;
      }

      .cls-2 {
        fill: #f4f4f4;
      }

      .cls-3 {
        fill: #f1f1f1;
      }

      .cls-4 {
        fill: #fafafa;
      }

      .cls-5 {
        fill: #fbfbfb;
      }

      .cls-6 {
        fill: #fdfdfd;
      }

      .cls-7 {
        fill: #303030;
      }

      .cls-8 {
        fill: #939393;
      }
    </style>
  </defs>
  <path class="cls-7" d="m100.91,67.93c-9.9-5.63-18.38-10.6-29.91,1.22-2.16.32-1.35-1.36-1.41-2.26-.24-4.23.32-8.49-.31-12.72-.87-5.35-1.55-10.74-2.65-16.05-1.13-5.47.59-9.23,5.78-11.26,6.54-2.56,12.61-5.96,18.05-10.4,1.53-1.25,2.88-2.74,4.12-4.28,1.08-1.35,1.56-3.01.58-4.65-1.06-1.78-2.82-2.24-4.75-1.98-3.02.4-5.7,1.73-8.25,3.31-1.89,1.17-3.7,2.46-6.6,4.4,1.84-3.16,1.77-5.46,1.59-7.78-.16-1.9.73-4.25-1.81-5.16-2.49-.89-4.62.18-6.24,2.03-1.65,1.87-3.05,3.96-4.65,6.08-2.04-3.65-2.52-8.87-7.77-8.2-5.6.71-4.23,6.01-4.69,9.75-5.18-1.98-9.95-3.12-14.87.04-3.05,1.96-2.06,4.52-1.55,7.21-5.56.58-11.03,1.31-14.78,6.05-1.77,2.25-3.17,5.82,0,6.73,6.86,1.99,13.55,5.78,21.22,3.85,3.02-.77,6.21-1.71,9.26-.17,3.12,1.57,6.17,3.16,9.83,2.66,2.15-.3,2.42,1.33,2.67,2.78.87,5.01,1.66,10.03,2.48,15.04.31,5.62,1.12,11.26-.42,16.83-.93-.53-1.86-1.06-2.79-1.6-.71.31-1.6.02-2.21.68-.34.52-.43,1.1-.34,1.71.15.58.42,1.09.82,1.54.28.28.6.49.96.63,3.59.57,3.24,3.16,2.86,5.7-4.05,27.14-14.5,51.49-31.88,72.8-.69.84-1.29,2.1-2.59,1.19,3.31-5.46,5.66-11.21,6.39-17.56-.62-.78-.25-2.24-1.71-2.44-.46,0-.79.2-1.01.61-.42,2.32-.47,4.79-2.4,7.41-.96-3.01-2.01-5.22-3.69-7.03-5.14-5.57-14.11-4.52-16.6,1.94-1.56,4.04.25,8.76,3.66,9.52,1.38.3,2.27-.09,2.06-1.17-.67-3.49.69-5.69,4.11-5.95,3.81-.28,5.68,2.37,6.46,5.71,1.05,4.5-.3,8.57-2.88,12.24-6.16,8.76-13.55,16.36-22,22.94-1.26.98-4.2,1.76-2.54,3.84,1.47,1.84,3.22-.54,4.56-1.51,4.04-2.91,8.08-5.85,11.89-9.05,14.79-12.46,26.61-27.33,35.66-44.42,2.4-4.52,5.59-8.34,10.95-9.4,2.74-.54,4.98.46,5.87,3.33.77,2.49-.66,4.07-2.6,5.35-1.08.71-3.69.15-2.95,2.3.67,1.92,2.93,1.75,4.8,1.38,6.45-1.28,10.19-7.54,8.41-14.07-1.23-4.52-7.91-7.01-13.5-4.98-1.39.5-2.72,1.19-4.29,1.89,1.81-5.71,3.65-10.88,5.05-16.16,1.44-5.46,2.56-11,3.61-16.55,1.07-5.62,4.05-8.82,9.76-9.48,2.62-.31,5.31-.11,7.96.03,4.84.25,9.64.19,14.36-1.07.96-.25,2.11-.35,2.3-1.53.14-.91-.68-1.42-1.43-1.84ZM14.17,142.64c-1.69-3.84-.55-6.59,2.66-8.47,3.69-2.17,7.79-.49,10.93,4.21-6.96-2.97-10.35-1.97-13.59,4.26Z"/>
  <path class="cls-7" d="m37.04,136.09c-.63-.66-1.26-1.32-1.89-1.98-1.3-3.28.18-6.8-.88-10.1-.27-1.99-.46-3.67-3.14-4.29-5.99-1.37-9.24-5.51-10.13-11.54-1.01-3.67.35-7.49-.76-11.15-.21-1.13-.34-2.3-.66-3.4-.67-2.28-.39-3.46,2.24-2.1,1.32.68,2.37,1.71,3.54-.45.79-1.45,2.04-.14,2.89.48,3.46,2.56,6.93,5.12,9.72,8.45,4.31,5.15,4.9,11.83.75,16.87-2.01,2.45-2.15,4.54-1.39,7.16.42,3.72.41,7.44,0,11.17-.02.33-.12.62-.3.89Z"/>
  <path class="cls-7" d="m63.03,69.4c-.68.29-1.36.58-2.05.88-.38.31-.8.52-1.27.66-2.26.15-4.02-1.28-6.05-1.88-4.01-.83-8.01-1.03-11.98-.03,1.15.99,2.61,1.12,3.92,1.61,5.08.84,10.4-.94,15.32,1.44.38.38.77.77,1.15,1.15-6.34.79-12.69.68-19.03.07-1.83-.74-3.77-1.3-5.46-2.28-1.3-.75-3.75-.94-3.38-2.98.37-2,2.66-2.37,4.42-2.5,7.22-.54,14.53-1.53,21.25,2.45.98.58,2.1.95,3.15,1.42Z"/>
  <path class="cls-5" d="m41.15,21.2c4.81.63,9.22,2.43,13.68,4.47-5.02,5.82-12.27,5.77-18.26,5.19-3.57-.35-7.94-1.24-11.82-2.53-2.88-.96-2.53-1.93-1.09-3.67,1.67-2.01,3.93-2.94,6.41-3.45,3.69-.68,7.38-.67,11.08,0Z"/>
  <path class="cls-4" d="m57.87,23.36c-5.85-2.27-10.9-4.23-15.96-6.19-1.63-.63-3.11-1.55-2.98-3.5.16-2.3,2.18-2.72,3.94-3.09,3.25-.68,5.79.87,8.04,2.97,2.81,2.62,4.9,5.77,6.94,9.82Z"/>
  <path class="cls-2" d="m97.83,69.49c-8.29,1.36-15.67.24-23.27.69,5.91-7.39,13.19-7.73,23.27-.69Z"/>
  <path class="cls-1" d="m70.72,23.82c4.11-4.93,8.37-9.76,14.1-12.92,1.15-.63,2.36-1.17,3.57-1.68,1.13-.48,2.57-.59,3.21.38.8,1.22-.62,2.06-1.4,2.79-5.56,5.28-12.11,8.94-19.48,11.43Z"/>
  <path class="cls-1" d="m66.52,22.09c-.96-6.17.05-11.8,3.92-16.68.76-.97,1.58-2.54,3.13-1.57,1.22.76,1.15,2.24.87,3.62-1.13,5.64-4.11,10.29-7.93,14.63Z"/>
  <path class="cls-2" d="m61.63,23.47c-3.13-5.46-5.74-10.09-6.32-15.47-.17-1.64-.78-4.07,1.61-4.57,1.86-.39,2.8,1.56,3.45,3.04,2.31,5.24,1.83,10.67,1.25,17Z"/>
  <path class="cls-3" d="m60.89,117.15c6.45-3.78,10.54-3.62,13.01-.09,2.6,3.72,1.55,7.02-2.34,10.82.8-7.77-1.56-12.14-10.67-10.73Z"/>
  <path class="cls-3" d="m66.17,25.42c-3.29,8.87-6.3,10.08-12.66,5.39,3.92-2.15,7.56-4.63,12.66-5.39Z"/>
  <path class="cls-8" d="m41.15,21.2c-3.69,0-7.38,0-11.08,0,3.69-1.36,7.38-1.24,11.08,0Z"/>
  <path class="cls-6" d="m22.54,95.59c7.82-2.35,11.4,2.98,14.87,8.01,2.72,3.94,2.23,8.13-.53,12.04-1.4,1.99-3.12,2.71-5.55,1.85-4.48-1.57-7.29-4.64-7.89-9.28-.54-4.23.04-8.56-.89-12.62Z"/>
</svg>