<?xml version="1.0" encoding="UTF-8"?>
<svg id="BG" xmlns="http://www.w3.org/2000/svg" viewBox="0 0 137.99 122.82">
  <defs>
    <style>
      .cls-1 {
        fill: #f3f3f3;
      }

      .cls-2 {
        fill: #f7f7f7;
      }

      .cls-3 {
        fill: #f2f2f2;
      }

      .cls-4 {
        fill: #696969;
      }

      .cls-5 {
        fill: #f0f0f0;
      }

      .cls-6 {
        fill: #f4f4f4;
      }

      .cls-7 {
        fill: #f5f5f5;
      }

      .cls-8 {
        fill: #f1f1f1;
      }

      .cls-9 {
        fill: #fafafa;
      }

      .cls-10 {
        fill: #e2e2e2;
      }

      .cls-11 {
        fill: #b7b7b7;
      }

      .cls-12 {
        fill: #939393;
      }

      .cls-13 {
        fill: #b1b1b1;
      }

      .cls-14 {
        fill: #bfbfbf;
      }

      .cls-15 {
        fill: #c9c9c9;
      }

      .cls-16 {
        fill: #959595;
      }

      .cls-17 {
        fill: #282828;
      }
    </style>
  </defs>
  <path class="cls-17" d="m13.63,15.14c2.12,1.42,3.26,2.5.17,4.51-6.64,4.32-10.1,10.78-11.3,18.55-.61,3.93-1.45,7.83-2.16,11.75-.25,1.37-1.16,3.32,1.76,2.39,3.66-3.95,6.69-8.34,9.19-13.1,2.12-5.19,4.97-10.1,5.58-15.87.23-2.17,1.16-2.88,3.52-1.06,3.36,2.59,5.65,6.05,8.63,8.89,2.94,2.8,2.2,4.61-.92,6.31-2.97,3.29-5.45,6.92-7.6,10.79-3.69,6.54-1.86,14.08-3.77,20.95-.18.64-.13,1.33.7,1.6.82.27,1.16-.39,1.63-.83,7.44-6.93,14.52-20.78,15.41-30.27,4.46,2.82,6.39,7.64,9.53,11.44.97,1.17.46,1.96-.37,3-6.9,8.69-8.48,24.98-6.43,36.81,7.36-10.41,13.47-20.24,11.4-33.23,2.33,2.77,4.58,5.61,7.01,8.28,1.29,1.41.79,2.58.23,4.04-3.38,8.74-3.07,17.57-.45,26.41.36,1.2.31,3.04,1.92,3.18,1.64.14,1.81-1.7,2.31-2.82,2.57-5.76,3.48-11.79,2.36-18.02-.28-1.57-1.21-3.02-1.22-4.7,5.5,1.27,7.43,6.13,11.65,8.07,1.31.6.1,2.09-.03,3.17-1.23,10.07,2.13,18.77,8.07,27.73,3.52-9.35,2.07-17.45-2.08-26.15,4.57,2.63,8.21,4.83,11.95,6.84,2.73,1.46,2.41,3.94,1.95,6.11-1.77,8.33,1.65,14.92,6.56,21.11.47.59.98.84,2.33.72-.2-7.61.8-15.29-1.83-23.57,3.62,1.71,7.23,2.31,9.49,5.02,7.92,9.51,17.83,10.58,29.18,7.19-4.38-5.05-9.87-7.55-16.34-7.96-7.76-.5-15.02-2.51-22.09-6.89,9.45-1.9,16.9-5.95,19.51-15.95-7.31,5.04-15.88,7.3-23.5,11.54-1.65.92-3.11,2.06-4.88.35-2.74-1.95-6.67-2.49-7.69-6.47,10.37-.99,15.73-8.14,20.18-16.6-8.54,4.86-18.38,6.48-26.74,11.56-3.93,1.06-5.56-2.33-8.01-4.14-1.82-1.69-3.63-3.39-6.09-5.67,10.37.09,18.2-3.79,24.57-10.91,1.09-1.22,3.17-2.41,2.57-3.8-.88-2.02-2.93-.39-4.37-.02-7.92,2.03-15.66,4.67-22.81,8.63-3.12,1.73-4.96,1.54-6.88-1.4-1.41-2.16-3.22-4.07-5.45-6.83,11.02,1.27,19.14-3.11,26.32-9.7,1.21-1.11,3.86-2.02,2.79-4.03-.83-1.56-3.04-.2-4.58.13-7.68,1.63-15.22,3.91-22.03,7.8-4.17,2.39-6.29,1.53-8.49-2.39-1.93-3.44-4.57-6.48-7.27-10.21,2.71-.23,4.93-.39,7.13-.62,9.45-1,17.11-5.09,22.4-13.18.5-.76,1.52-1.61.66-2.62-.97-1.13-1.8.02-2.52.51-3.11,2.09-6.62,3.06-10.21,3.82-6.23,1.32-12.21,3.4-17.54,6.92-2.17,1.43-3.27,1.22-4.81-.8-2.68-3.54-5.69-6.84-9.2-10.99,15.94.61,24.77-9.73,33.77-19.96-9.23,2.08-18.75,3.87-26.37,9.37-7.74,5.58-13.95,7.45-20.6-1.01-1.07-1.36-3.02-3.92-5.81-1.98,2.52,3.77,7.27,4.85,10.04,8.32Z"/>
  <path class="cls-15" d="m11.28,39.23c-3.06,4.37-6.13,8.73-9.19,13.1,4.34-3.47,7.41-7.84,9.19-13.1Z"/>
  <path class="cls-11" d="m13.63,15.14c-2.49-3.8-6.86-5.35-10.04-8.32,2.28,4.06,6.62,5.64,10.04,8.32Z"/>
  <path class="cls-16" d="m20.5,48.28c2.53-3.6,5.07-7.19,7.6-10.79-3.8,2.71-6.1,6.47-7.6,10.79Z"/>
  <path class="cls-14" d="m83,84.97c-.94-.08-3.22-.57-1.21,1.17,2.57,2.22,5.42,4.41,8.9,5.3-2.1-2.7-6.17-3.07-7.69-6.47Z"/>
  <path class="cls-12" d="m68.42,75.79c2.38,1.93,3.56,6.22,8.01,4.14-3.71.63-5.09-3.25-8.01-4.14Z"/>
  <path class="cls-9" d="m22.34,49.44c-2.36,4.42-2.58,9.22-2.49,14.07,3.06.46,3.21-2.5,4.45-4,1.52-1.84,3.19-3.69,3.92-6.09,1.15-3.03,2.46-6.01,3.38-9.1.6-2.02.62-4.21.9-6.3-1.88-.81-2.3,1-3.35,1.53-2.77,2.96-5.22,6.13-6.82,9.89Z"/>
  <path class="cls-2" d="m50.26,4.25c-10.66,2.67-19.71,6.86-27.98,12.74,7.32,3.05,17.51-1.45,27.98-12.74Z"/>
  <path class="cls-7" d="m44.89,55.64c-5.12,9.2-6.99,18.39-6.13,28.63,6.61-7.7,8.11-14.67,6.13-28.63Z"/>
  <path class="cls-6" d="m4.15,45.17c5.85-6.66,8.99-14.59,11.21-23.57-9.95,5.33-10.26,14.6-11.21,23.57Z"/>
  <path class="cls-8" d="m84.54,57.96c-8.25,1.91-15.54,5.27-23.01,8.59,6.67,2.84,17.17-1.02,23.01-8.59Z"/>
  <path class="cls-5" d="m57.59,95.87c3.6-8.49,3.07-15.94.25-24.51-2.88,8.48-2.73,15.93-.25,24.51Z"/>
  <path class="cls-3" d="m36.82,34.86c9.83-.48,17.79-2.16,25.09-9.18-8.97,2.34-17.09,3.55-25.09,9.18Z"/>
  <path class="cls-3" d="m134,108.96c-6.58-4.59-13.45-4.19-21-5.32,5.98,7.01,12.83,6.74,21,5.32Z"/>
  <path class="cls-5" d="m78.54,81.85c7.77,1.67,13.77-1.21,19.31-7.97-7.64,1.39-13.47,4.63-19.31,7.97Z"/>
  <path class="cls-1" d="m50.52,53.36c9.61.84,17.38-2.1,22.3-8.4-7.95,1.81-14.65,4.4-22.3,8.4Z"/>
  <path class="cls-8" d="m95.19,96.51c-1.55,7.62-1.84,14.02,3.51,20.2.92-7.22.98-13.54-3.51-20.2Z"/>
  <path class="cls-3" d="m79.73,107.13c1.44-7.79-.6-14.33-4.42-20.67-1.76,5.38.02,13.91,4.42,20.67Z"/>
  <path class="cls-10" d="m98.32,91.95c6.34.61,11.68-1.44,15.45-6.86-5.15,2.29-10.3,4.57-15.45,6.86Z"/>
  <path class="cls-13" d="m28.23,53.43c-3.21,3.02-3.98,8.05-8.37,10.09-.91,2.56.32,2.5,1.47.92,2.54-3.5,5.76-6.62,6.91-11.01Z"/>
  <path class="cls-4" d="m22.34,49.44c2.27-3.3,4.55-6.6,6.82-9.89-3.39,2.53-5.66,5.83-6.82,9.89Z"/>
</svg>