<?xml version="1.0" encoding="UTF-8"?>
<svg id="BG" xmlns="http://www.w3.org/2000/svg" viewBox="0 0 131.31 118.47">
  <defs>
    <style>
      .cls-1 {
        fill: #2b2622;
      }
    </style>
  </defs>
  <path class="cls-1" d="m127.83.7c-5.7,4.12-12.63,5.76-18.59,9.33-1.45.87-2.91,1.3-4.67,1.31-11.56.1-22.84,2.07-33.8,5.68-2.93.96-5.24.85-7.93-.86-5.43-3.44-11.49-5.26-18-4.95-1.55.07-3.82-.19-4.31,1.69-.56,2.13,1.88,2.35,3.18,3.14,4.99,3.02,10.74,3.76,17.36,5.01-2.95,1.4-4.85,2.38-6.81,3.22-4.16,1.77-8.11,3.84-11.22,7.23-1.32,1.44-2.15,3.01-1.31,4.97.86,2.03,2.48,2.51,4.51,1.99,3.02-1.6,6.04-3.2,8.54-5.58,3.51-3.75,6.36-8.77,10.65-11,10.22-5.3,21.57-7.35,33.11-7.56,1.63-.03.2.91-.24,1.34-7.9,4.47-15.6,9.27-22.99,14.54-1.7,1.51-3.28,3.19-5.12,4.5-9.39,6.7-18.23,14.02-26.01,22.57-2.75,2.56-5.91,4.47-9.34,5.94-1.81.72-3.51,1.54-5.51,1.92-6.98,1.35-14.21,2.03-20.4,5.99-2.27,1.46-5.71,2.67-4.46,6.21,1.15,3.26,4.55,2.79,7.35,2.69,3.71-.13,7.11-1.52,10.48-2.95,2.98-1.05,5.32-3.22,8.06-4.68.71-.38,1.65-1.48,2.12.28-2.95,5.56-5.43,11.38-10.67,15.42-2.88,2.22-5.63,4.71-8.06,7.41-4.18,4.66-9.44,8.39-12.52,13.98-1.43,2.59-1.98,5.64.39,7.88,2.47,2.34,4.92.45,7.18-.99,7.62-4.88,11.92-12.22,14.84-20.48,3.01-8.53,7.77-16.13,12.29-23.86.74-1.25,1.34-2.94,3.34-2.96-2.1,14.08-1.85,23.98.97,30.61.66,1.54.89,4.15,3.1,3.9,1.89-.22,2.5-2.52,2.86-4.29.43-2.1.64-4.27.68-6.41.08-4.85-1.19-9.53-2.11-14.25-1.09-5.54-2.32-11.08-.8-16.75,7.84-6.53,14.71-14.15,22.81-20.42,4.43-3.42,9.66-5.82,13.25-10.32,3.91-4.08,8.83-6.66,13.77-9.31-10.88,14.23-17.91,30.79-26.87,46.22-.16.28-.23.64-.24.97-.14,2.88-1.31,5.99,1.81,8.15l.08.06c5.75-.09,8.35-4.27,10.52-8.57,2.64-5.23,4.07-10.97,4.62-16.76,1.46-15.31,9.96-26.45,20.81-36.29,1.97-1.79,4.22-3.21,7.53-3.8-5.82,9.33-9.64,18.62-9.26,29.15.07,1.87-.3,4.45,2.22,5,2.57.57,3.76-1.64,4.81-3.55,3.49-6.36,4.45-13.13,3.37-20.28-1.17-7.7,1.02-11.3,8.23-14.95,3.42-1.74,6.54-4.06,9.88-6.17-1.46-1.63-2.59-.95-3.48-.31ZM45.31,14.25c5.19-1,10.44.36,15.5,4.14-5.7-.62-10.69-1.46-15.5-4.14Zm2.86,20.85c-1.11.8-2.26.61-3.14-.29-1.54-1.59.34-2.43,1.08-3.11,3.56-3.25,7.78-5.37,13.4-7.09-3.63,4.61-7.37,7.67-11.34,10.49ZM12.66,110.27c-1.84,2.04-4.03,3.28-6.11,4.82-.74.55-1.5,1.26-2.63.45-1.09-.79-1.55-1.77-1.27-2.98.22-.95.57-1.96,1.15-2.72,5.11-6.73,10.98-12.66,18.91-18.01-3.03,7.31-5.48,13.38-10.05,18.44Zm-1.43-32.78c-1.4.02-3.44.55-3.88-1.23-.38-1.54,1.3-2.51,2.58-3.28,4.05-2.44,8.6-3.33,13.13-4.28,3.21-.67,6.41-1.37,9.62-2.07-6.3,5.49-12.66,10.74-21.45,10.86Zm32.22,23.57c-4.23-9.07-3.16-17.18-2.22-25.27,2.34,7.82,4.37,15.66,2.22,25.27Zm30.94-29.13c-.97,1.22-2.39,2.95-3.99,2.11-1.39-.74-.54-2.74-.23-4.15,1.54-7.04,6.48-12.15,10.63-17.92-.98,7.01-1.78,14.14-6.41,19.96Zm31.83-28.49c-1.66-6.35-.17-14.8,4.2-23.67,1.59,9.01,1.1,16.5-4.2,23.67Z"/>
</svg>