<?xml version="1.0" encoding="UTF-8"?>
<svg id="BG" xmlns="http://www.w3.org/2000/svg" viewBox="0 0 145.03 101.19">
  <defs>
    <style>
      .cls-1 {
        fill: #2b2622;
      }
    </style>
  </defs>
  <path class="cls-1" d="m0,1.45c3.59,1.65,6.99,3.54,10.61,4.82,7.63,2.67,10.27,5.95,10.12,13.74-.13,7.23,1.71,13.81,6.01,19.66,1.29,1.76,2.76,3.79,5.23,2.89,2.43-.88,1.72-3.39,1.54-5.25-1.01-10.49-6.02-19.2-13.01-27.68,3.36.15,5.78,1.26,7.96,2.78,12.05,8.33,21.94,18.25,25.4,33.24,1.31,5.67,3.48,11.17,6.78,16.01,2.72,3.98,5.84,7.78,11.56,7.11l.07-.07c2.81-2.55,1.24-5.48.72-8.32-.05-.33-.17-.67-.37-.93-10.91-14.12-20.06-29.61-32.71-42.29,5.25,1.98,10.46,3.89,14.87,7.42,4.15,3.99,9.65,5.68,14.49,8.49,8.85,5.15,16.67,11.8,25.3,17.24,2.25,5.42,1.76,11.07,1.41,16.71-.29,4.8-.93,9.61-.22,14.4.32,2.12.81,4.24,1.52,6.27.59,1.71,1.5,3.91,3.4,3.88,2.22-.04,2.11-2.66,2.56-4.27,1.92-6.94.87-16.79-3.06-30.47,1.99-.24,2.8,1.35,3.7,2.5,5.5,7.07,11.22,13.98,15.32,22.04,3.98,7.8,9.21,14.52,17.4,18.35,2.43,1.13,5.11,2.68,7.25.04,2.05-2.53,1.11-5.48-.65-7.86-3.79-5.14-9.49-8.14-14.25-12.21-2.76-2.36-5.82-4.46-8.96-6.29-5.73-3.32-8.95-8.76-12.61-13.88.23-1.81,1.31-.84,2.06-.56,2.91,1.09,5.51,2.93,8.61,3.58,3.53.97,7.08,1.91,10.78,1.55,2.79-.27,6.22-.25,6.93-3.63.77-3.67-2.8-4.42-5.24-5.57-6.66-3.11-13.91-2.84-21.01-3.26-2.03-.11-3.83-.7-5.71-1.18-3.59-1.01-6.98-2.48-10.04-4.66-8.84-7.45-18.56-13.55-28.75-18.95-2-1.06-3.78-2.51-5.67-3.79-8.02-4.25-16.28-8-24.7-11.39-.49-.37-2.03-1.11-.41-1.3,11.47-1.31,22.99-.77,33.82,3.14,4.55,1.65,8.03,6.25,12,9.5,2.79,2.03,6,3.22,9.2,4.41,2.08.25,3.62-.44,4.21-2.57.58-2.05-.45-3.5-1.95-4.75-3.53-2.95-7.72-4.48-12.07-5.69-2.05-.57-4.07-1.3-7.17-2.3,6.4-2.11,12-3.6,16.55-7.25,1.18-.95,3.57-1.49,2.74-3.53-.73-1.8-2.95-1.24-4.49-1.11-6.49.55-12.26,3.15-17.19,7.27-2.44,2.05-4.72,2.46-7.75,1.9-11.34-2.14-22.78-2.61-34.25-1.19-1.75.22-3.25-.01-4.8-.68C16.69,4.73,9.6,4.02,3.41.68,2.44.16,1.23-.36,0,1.45Zm72.17,7.96c4.52-4.41,9.54-6.45,14.82-6.14-4.42,3.29-9.25,4.78-14.82,6.14Zm2.11,5.99c5.8.97,10.26,2.51,14.22,5.27.82.58,2.8,1.16,1.48,2.94-.75,1.01-1.87,1.35-3.07.7-4.31-2.27-8.42-4.81-12.62-8.91Zm45.32,61.8c8.56,4.26,15.16,9.37,21.11,15.37.67.68,1.15,1.63,1.5,2.55.44,1.16.11,2.19-.87,3.12-1.01.95-1.86.35-2.67-.1-2.26-1.25-4.6-2.19-6.69-3.97-5.2-4.42-8.42-10.11-12.39-16.96Zm-13.2-23.67c3.27.27,6.54.55,9.81.79,4.62.35,9.24.63,13.58,2.52,1.37.6,3.16,1.34,2.99,2.91-.2,1.82-2.29,1.57-3.68,1.73-8.73,1.04-15.72-3.33-22.69-7.95Zm-7.27,10.2c2,7.9,4.12,15.8,1.12,25.34-3.39-9.24-2.41-17.28-1.12-25.34Zm-42.36-18.41c4.87,5.17,10.44,9.59,12.89,16.37.49,1.36,1.6,3.23.32,4.14-1.48,1.04-3.11-.49-4.23-1.57-5.36-5.16-7.09-12.12-8.98-18.94ZM23.18,17.3c5.5,8.22,8.09,16.4,7.28,22.91-6.2-6.41-7.67-13.77-7.28-22.91Z"/>
</svg>