<?xml version="1.0" encoding="UTF-8"?>
<svg id="BG" xmlns="http://www.w3.org/2000/svg" viewBox="0 0 139.56 148.31">
  <defs>
    <style>
      .cls-1 {
        fill: #f3f3f5;
      }

      .cls-2 {
        fill: #e9e7e9;
      }

      .cls-3 {
        fill: #f5f4f6;
      }

      .cls-4 {
        fill: #323232;
      }

      .cls-5 {
        fill: #303030;
      }

      .cls-6 {
        fill: #333;
      }

      .cls-7 {
        fill: #414141;
      }

      .cls-8 {
        fill: #424242;
      }

      .cls-9 {
        fill: #373737;
      }

      .cls-10 {
        fill: #444;
      }

      .cls-11 {
        fill: #3e3e3e;
      }

      .cls-12 {
        fill: #3f3f3f;
      }

      .cls-13 {
        fill: #1a1a1a;
      }

      .cls-14 {
        fill: #2c2c2c;
      }

      .cls-15 {
        fill: #2a2a2a;
      }

      .cls-16 {
        fill: #353535;
      }

      .cls-17 {
        fill: #3b3b3b;
      }

      .cls-18 {
        fill: #383838;
      }

      .cls-19 {
        fill: #262527;
      }

      .cls-20 {
        fill: #313131;
      }

      .cls-21 {
        fill: #3d3d3d;
      }

      .cls-22 {
        fill: #393939;
      }

      .cls-23 {
        fill: #3c3c3c;
      }

      .cls-24 {
        fill: #606060;
      }

      .cls-25 {
        fill: #4b4b4b;
      }

      .cls-26 {
        fill: #282828;
      }

      .cls-27 {
        fill: #343434;
      }

      .cls-28 {
        fill: #4e4e4e;
      }
    </style>
  </defs>
  <path class="cls-19" d="m33.27,124.26c7.65-8.37,12.46-18.53,17.41-28.5,8.5-17.11,18.76-32.89,32.99-45.75,5.72-5.17,12.01-9.72,18.19-14.34,2.19-1.64,4.69-2.58,7.74-2.69,4.17-.15,7.37-3,9.81-6.2,2.08-2.73.61-4.4-2.45-4.5-3.98-.13-7.56,1.87-9.2,5.05-2.5,4.86-7.19,6.82-11.1,9.5-2.92,2-4.96,5.37-8.7,6.17-4.96,4-9.56,8.35-13.61,13.28-2.8,5.68-8.86,8.6-11.93,14.18,1.38-7.52,3.37-14.84,3.49-22.43.04-2.54.88-5.33-1.37-7.49-.34-.4-.69-.4-1.05-.04.66,17.34-3.46,33.51-11.87,48.65-5.73,10.31-10.77,21.02-17.81,30.56-2.16,2.92-4.39,5.76-7.39,8.14-.74-1.93.56-3.27,1.03-4.72,5.6-17.49,4.31-34.42-4.07-50.77-.56-1.09-.8-3.03-2.44-2.74-1.72.31-1.09,2.19-1.18,3.4-1.49,20.05-3.28,40.09-.43,60.17.32,2.27-1.5,2.93-2.93,3.83-5.42,3.38-10.87,6.73-16.41,10.15,1.68,2.09,2.77.82,3.74.2,4.75-3.05,9.48-6.14,14.16-9.29,1.8-1.21,3.25-2.08,5.83-1.54,13.79,2.88,27.79,1.95,41.74,1.67.41,0,.81-.45,1.22-.7-7.08-9.19-22.47-11.53-38.71-5.97-.12-3.79,4.21-4.35,5.29-7.27Z"/>
  <path class="cls-6" d="m63.5,40.49c.35.01.7.03,1.05.04.78-.64,1.55-1.28,2.33-1.92.41.09.64.02.71-.22.06-.23.05-.39-.03-.48-.54-3.1.64-6.21-.18-9.34-.45-1.7-.78-3.31-2.85-3.51-2.2-.21-2.83,1.57-3.23,3.13-1.14,4.39-1.92,8.81,2.2,12.3Z"/>
  <path class="cls-20" d="m118.82,43.87c-.12-1.27-.82-3.01-.25-3.72,2.93-3.65-1.49-3.35-2.47-4.74-1.06-1.51-1.58.05-2.49.72-2.12,1.57-1.56,3.75-1.79,5.71-.08.64.96.84,1.56.39,2.14-1.6,2.81.65,4.02,1.48.47.09.91.46,1.42.15Z"/>
  <path class="cls-9" d="m130.1,45.27c1.49-3.83,1.63-7.13-2.51-8.25-1.12-.3-3.32,1.8-3.15,4.07.09,1.13-1.45,3.38.39,3.19,1.99-.21,3.68-.31,5.26.99Z"/>
  <path class="cls-17" d="m67.61,9.24c1.21.56,3.2,2.12,2.95,1.48-1.11-2.85,5.03-2.04,2.21-5.46-2.3-2.79-4.85-2.19-6.57-.67-1.35,1.19.17,3.42,1.42,4.66Z"/>
  <path class="cls-28" d="m105.35,2.94c-3.77,2.44-.11,4.23.49,5.23,1.23,2.08,3.5-1.33,5.46-.16-.41-2.05-.74-4.11-.25-6.2-2.19-.24-4.51-1.04-5.71,1.12Z"/>
  <path class="cls-4" d="m46.98,18.61c-2.65,2.7-3.09-3.63-5.44-.83-1.52,1.81-2.28,4.58-.59,6.53.67.77,3.23-.1,4.92-.22-.58-1.81,1.73-3.04,1.11-5.48Z"/>
  <path class="cls-5" d="m79.31,31.23c-2.17-.46-2.43-5.07-6.11-2.63-1.03.69-2.49.47-2.11,2.33.44,2.19,2.09,3.58,3.77,4.46,1.95,1.01,1.26-1.15,1.56-1.99.5-1.4,2.57-.72,2.89-2.28v.12Z"/>
  <path class="cls-26" d="m139.01,17.76c-1.87,1.45-2.07-3.77-4.5-.9-1.64,1.93-2.92,4.39-1.52,6.3.72.99,3.8.25,5.82.29-1.43-1.88,2.03-3.54.2-5.69Z"/>
  <path class="cls-12" d="m128.64,6.22c-1.72,2.72-1.6,5.04.18,7.14,2.2,2.58,2.24-1.77,4.21-1.48.89.13.88-2.63.4-4.17-1.92.64-3.07-2.22-4.79-1.48Z"/>
  <path class="cls-12" d="m55.07,4.6c-1.57,1.11.76,1.72,1.2,2.81,1.14,2.83,3.39.76,4.99,1.35.46-1.72.91-3.33-.37-5.05-2.14-2.88-3.47.06-5.83.89Z"/>
  <path class="cls-6" d="m132.88,33.24c1.47,2.65,2.69,1.43,3.97.29,1.56-1.39,1.11-3.16,1.02-4.87-2.06.97-3.75-2.74-4.94-1.12-.97,1.32-3.66,4.17-.05,5.71Z"/>
  <path class="cls-16" d="m83.76,21.83c-1.27-4.01-4.46-.77-5.07-.16-1.44,1.47-.3,3.55,1.33,4.7.84.6,1.17,2.84,2.99,1.35-2.37-2.29,6.25-2.93.75-5.89Z"/>
  <path class="cls-8" d="m99.39,10.42c-3.01,3.77-2.25,6.39-.31,8.15,1.68,1.52,2.38-2.14,4.26-1.77-.32-1.42,1.27-3.99-.65-4.06-1.73-.07-2.59-2.9-3.31-2.32Z"/>
  <path class="cls-22" d="m95.91,28.54c1.38,2.34,1.92-1.25,3.56-1.26,1.19,0,.8-2.64.58-4.17-2.02.68-3.74-2.97-4.85-1.27-.99,1.51-3.91,4.53.71,6.7Z"/>
  <path class="cls-22" d="m119.73,7.28c1.48,2.05,1.75-1.67,3.61-1.48.91.1.8-2.63.4-4.15-2.03.93-3.56-3.08-4.97-1.08-1.19,1.69-2.96,4.62.95,6.71Z"/>
  <path class="cls-27" d="m80.42,16.13c-.05-3.03-.15-5.61-3.2-6.68-.37,2.08-4.01,1.64-3.51,3.99.76,3.54,3.83,2.57,6.71,2.7Z"/>
  <path class="cls-4" d="m50.22,35.38c.29-1.8.87-3.54-.06-4.9-1.72-2.55-3.74-1.49-5.84-.19-2.15,1.33-.07,1.78.24,2.74,1.04,3.21,3.89,1.07,5.66,2.35Z"/>
  <path class="cls-7" d="m49.54,39.08c-1.21.91,1.6,1.43,1.93,2.48.95,3.06,3.42.31,4.95,1.22.28-1.73.77-3.45-.49-5.05-2.08-2.64-3.54-.13-6.39,1.35Z"/>
  <path class="cls-22" d="m46.92,12.74c.93,1.79,3.09.07,4.74.49-.03-1.69.91-3.32-.44-5.06-2.32-3.01-3.91.02-5.34.75-2.58,1.31.42,2.07,1.03,3.82Z"/>
  <path class="cls-10" d="m80.47,32.3c.52.62,1.31,1.17,1.51,1.88.45,1.67.98,3.65,2.98,2.8,1.12-.47,1.55-2.59,2.29-3.97-1.6-.76-2.64-3.42-5.05-1.43-.48.4-1.15.57-1.74.84,0,0,0-.12,0-.12Z"/>
  <path class="cls-25" d="m117.5,12.33c-1.3,1.49-1.9,3.04-1.66,4.88,1.72-.34,3.35,1.09,5.09.23-1.62-1.31,2.45-3.01-.2-4.04-1.01-.39-1.64-2.84-3.23-1.07Z"/>
  <path class="cls-21" d="m121.63,30.66c-.48.51-1.5,2.48-.52,3.79.64.85,3.01.41,4.61.54-1.39-1.49,2.62-3.31-.14-4.39-.9-.35-1.61-3.24-3.96.06Z"/>
  <path class="cls-9" d="m67.55,37.91c-.23.23-.45.46-.68.7.58.78,1.12,1.58,1.74,2.32.85,1.03,1.52,2.34,3.17,2.26-.58-1.93,2.92-2.28,1.84-3.78-.61-.85-1.99-3.32-4.19-1.38-.33.29-1.24-.06-1.88-.12Z"/>
  <path class="cls-12" d="m105.46,38.69c-1.59,1.02-1.37,2.69-1.33,4.3,1.66-.24,3.22.11,4.73.77-.88-1.57,1.61-3.29.09-4.44-.63-.48-1.88-2.97-3.5-.63Z"/>
  <path class="cls-13" d="m119.92,45.75c-.47-.05-.95-.1-1.42-.15,1.22,1.03-.79,2.02-.09,2.94.81,1.06-1.69,2.34.05,2.88,1.2.37,2.71-.21,3.84.85.71-.87-.35-2.18.93-3.05.79-.54.48-1.68-.6-1.67-1.44.01-1.91-1.06-2.72-1.8Z"/>
  <path class="cls-24" d="m109.67,46.86c-1.48,1.23-2.11,3.28-.98,4.59.69.79,3.01.17,4.6.18-1.44-1.38,2.33-3.07-.15-4.18-.97-.43-1.81-3.11-3.46-.58Z"/>
  <path class="cls-18" d="m67.39,13.17c-.77-3.42-3.31-.79-3.62-.51-1.42,1.31-.65,2.81.75,3.78.68.47,2.54,1.62,2.21.93-.93-1.94,5.05-2.45.66-4.2Z"/>
  <path class="cls-11" d="m56.1,27.37c1.76-.68.85-1.06-.34-2.77-1.81-2.58-2.89.59-4.15-.21-.61,1.94.44,3.13,1.71,4.44,2.38,2.46,1.51-.78,2.79-1.45Z"/>
  <path class="cls-23" d="m76.32,38.58c.79,2.18.66,3.71,2.19,4.7.83.54,2.1,2.26,2.07-.05-.02-1.35,4.51-1.06.82-3.93-2.36-1.83-3.02.75-5.08-.73Z"/>
  <path class="cls-5" d="m125.41,19.37c-1.41,1.34-1.78,3.65-1.09,4.09,1.21.77,3.14.4,4.77.5-1.22-1.37,1.36-3.19.07-3.77-.97-.43-2.31-3.2-3.75-.82Z"/>
  <path class="cls-15" d="m58.18,16.32c-.84-3.39-2.49.19-3.65-.43-.86,1.64-.38,2.97,1.04,3.97.63.44.9,2.01,2.17.84-1.56-1.63,4.58-2.5.43-4.38Z"/>
  <path class="cls-9" d="m74.49,23.66c3.47-.82.33-1.6-.26-2.81-1.41-2.88-2.65,1-3.88-.09-.78,1.93.27,3.15,1.57,4.38,2.23,2.13,1.59-.72,2.57-1.48Z"/>
  <path class="cls-14" d="m108.68,14.4c.47,2.14-2.89,3.12-1.32,5.65,1.34-1.72,3.43,1.25,3.98-.15.8-2.02,1.1-4.7-2.66-5.5Z"/>
  <path class="cls-3" d="m23.75,81.79c-1.11-.76-.4-2.67-2.16-3.25-1.11,14.86-2.12,29.61-.99,44.52,1.85-.4.8-2.51,2.16-2.98,1.94-1.55,1.15-3.78,1.43-5.74,0-2.42-.14-4.85.53-7.22.11-.44.18-.88.23-1.33.13-6.33.42-12.65.2-18.98-.47-1.67-.31-3.52-1.4-5.01Z"/>
  <path class="cls-1" d="m25.64,84.31c-8.63-18.75-1.75,11.32-1.44,22.12v-.09c-.77,2.68.2,5.62-1.19,8.21-.08,1.84-.17,3.69-.25,5.53-.14,2.73-.28,5.45-.42,8.18,6.53-13.12,7.88-26.76,4.32-40.91"/>
  <path class="cls-2" d="m56.37,135.18c1.11-.04,2.23-.08,4.41-.15-8.07-4.35-19.64-5.18-27.64-3.52-4.84,3.74-2.07,2.84,1.92,3.9,1.21.32,19.53,1.13,21.31-.22Z"/>
</svg>