<?xml version="1.0" encoding="UTF-8"?>
<svg id="Layer_1" data-name="Layer 1" xmlns="http://www.w3.org/2000/svg" viewBox="0 0 800.83 763.02">
  <defs>
    <style>
      .cls-1 {
        fill: #c3845d;
      }

      .cls-2 {
        fill: #2d2d2d;
      }
    </style>
  </defs>
  <g>
    <path class="cls-2" d="m800.79,6.45c-.44-4.46-4.62-7.16-10.14-6.28-17.81,2.86-35.84,3.62-53.75,5.37-13.17,1.29-26.32,3.02-39.53,4.06-16.29,1.28-32.52,3.46-48.75,5.4-15.31,1.84-30.6,3.87-45.89,5.84-6.18.79-12.34,1.67-18.52,2.44l-28.25,3.89c-.41.42-1.08.68-2.16.68-1.27,0-2.53.05-3.79.14h-.01c-8.9.6-17.56,3.04-26.41,4.13-15.48,1.89-30.99,4.18-46.36,7.01-17.88,3.3-35.82,6.18-53.77,9.09-12.74,2.06-25.46,4.35-38.08,7.05-29.72,6.37-59.37,13.05-89.05,19.6-26.82,6.31-53.62,12.71-80.48,18.88-6.67,1.54-12.45,4.62-17.77,8.67-3.5,2.67-4.05,6.99-1.63,10.18,2.63,3.47,5.93,3.32,9.29,1.3,2.31-1.39,4.72-2.5,7.32-3.09,7.44-1.72,14.94-3.23,22.38-4.98,40.9-9.63,82.32-16.56,123.61-24.21,3.59-.66,4.65.11,4.85,3.74.56,10.08,1.15,20.17,2.39,30.17,2.75,22.2,2.99,44.56,4.9,66.8.53,5.03,1.06,10.06.5,15.12.04,4.61.08,9.22.12,13.84l.11.35c.13.47.25.93.38,1.4.27.27.29.56.06.87.4,17.37.6,70.57-.35,76.09.04.18,0,.34-.14.46-.02,1.55,1.11,15.86-.51,21.39-.07,11.09-1.37,22.13-1.85,33.18-.59,13.43-1.45,26.84-2.53,40.24-1.3,16.33-3.75,32.58-5.2,48.86-1.38,15.36-4.47,30.37-6.32,45.6-1.2,9.88-2.43,19.77-4.15,29.57-1.79,10.26-2.52,20.78-6.68,30.52-2.6,12.13-6.85,23.68-11.66,35.02-.96,2.29-1.96,4.58-2.97,6.86.01.01,0,.01,0,.01-.4.9-.8,1.81-1.2,2.71-.13.29-.27.56-.42.8-6.03,12.69-13.23,25.07-18.7,33.7-.01.82-.82,1.61-1.29,2.28-1.2,1.74-2.42,3.47-3.65,5.18-.11.15-.21.3-.32.45-.32.46-.65.91-.98,1.36-.05.08-.11.15-.16.22-16.11,22.25-34.37,42.5-57.57,57.78-23.95,15.77-50.6,22.48-79.16,20.28-56.19-4.32-93.52-34.84-115.84-85.24-6.37-14.36-9.74-29.68-10.91-45.42-3.61-48.2,12.41-88.99,45.88-123.51,18.96-19.56,39.39-37.2,62.36-51.87,2.34-1.5,12.47-7.73,14.44-8.63,5.08-2.73,10.2-5.38,15.21-8.22,1.55-.88,3.07-2.15,1.99-4.43-1.02-2.18-2.84-2-4.67-1.58-.95.23-1.81.8-2.73,1.17-11.08,4.45-21.72,9.84-32.27,15.39-21.72,12.46-42.32,26.52-60.74,43.52-24.08,22.21-46.44,45.9-61.11,75.72-14.67,29.81-20.31,61.34-17.44,94.39,6.04,69.67,53.94,127.67,121.09,147.08,36.39,10.52,72.96,10.81,109.39,1.35,24.16-6.27,46.41-17.05,66.75-31.92,26.53-19.4,47.68-43.36,63.57-71.97,5.57-10.03,9.52-20.87,13.52-31.64,1.72-4.65,3.53-9.27,5.1-13.96,0,0,.01-.03.03-.09.01-.02.02-.05.03-.09.62-2.11,6.97-23.35,10.4-38.51-.11-.66.22-1.42.48-2.15.1-.28.19-.56.24-.83.2-1.1.4-2.2.59-3.29h.01c3.16-18.09,4.9-36.34,6.31-54.63,1.73-22.61,3.91-45.17,5.81-67.77,1.13-13.53,1.96-27.1,3.2-40.63.98-10.73,2.81-21.39,3.47-32.14.8-13.07,2.5-26.08,3.88-39.05,1.91-18.13,3.87-36.31,6.35-54.41,1.5-10.92,1.45-22.1,3.46-32.9,3.04-16.36,4.42-32.91,6.85-49.32,2.31-15.62,4.11-31.31,6.13-46.96,1.58-9.81,1.65-19.82,4.32-29.48.88-3.18,1.37-6.55,1.44-9.85.19-8.95,3.55-17.47,3.31-26.53-.07-2.94,1.21-5.95,1.15-9.15-.04-2.56,2.07-4.12,4.92-4.59,13.6-2.25,27.18-4.64,40.76-7.02,16.16-2.83,32.31-5.69,48.47-8.54,1.96-.34,3.93-.66,5.89-.98,0,0,.26-.04.75-.12.19-.03.38-.06.56-.09,4.64-.77,20.62-3.38,30.94-5.02.34-.08.71-.15,1.1-.21,1.22-.18,2.43-.36,3.65-.54.71-.11,1.35-.21,1.91-.29.03-.01.07-.01.1-.01,25.52-3.82,51.04-7.71,76.59-11.3,20.84-2.92,41.69-5.8,62.6-8.34,22.02-2.67,44.09-4.64,66.16-6.71,5.56-.52,9.26-4.04,8.79-8.71Z"/>
    <path class="cls-2" d="m372.36,213.91c-.04-.29-.06-.58-.06-.87.27.27.29.56.06.87Z"/>
  </g>
  <path class="cls-1" d="m391.91,561.74c-.19,1.09-.39,2.19-.59,3.29-.05.27-.14.55-.24.83.31-1.45.59-2.84.83-4.12Z"/>
  <path class="cls-1" d="m303.44,628.19c.33-.45.66-.9.98-1.36-.35.5-.68.95-.98,1.36Z"/>
  <path class="cls-1" d="m332.98,574.84c-.93,2.27-1.93,4.57-2.98,6.86,1.01-2.28,2.01-4.57,2.97-6.86h.01Z"/>
</svg>