<?xml version="1.0" encoding="UTF-8"?>
<svg id="Layer_1" data-name="Layer 1" xmlns="http://www.w3.org/2000/svg" viewBox="0 0 723.56 940.53">
  <defs>
    <style>
      .cls-1 {
        fill: #c3845d;
      }

      .cls-2 {
        fill: #2d2d2d;
      }
    </style>
  </defs>
  <path class="cls-2" d="m722.28,79.14c-2.57,2.34-4.52.49-6.33-1.44-31.04-33.19-70.25-51.71-114.09-59.03-74.06-12.38-140.44,21.95-178.57,86.39-11.97,20.21-19.29,42.14-23.52,65.35-3.19,17.56-5.31,35.16-6.85,52.9-2.18,25.27-.07,50.49.01,75.73.04,12.29,1.69,24.51,1.18,36.81-.12,2.93.52,5.9.96,8.83.49,3.22,3.12,2.01,4.78,1.83,7.92-.88,15.82-2.05,23.74-3.06,15.29-1.97,30.58-4,45.88-5.84,16.24-1.94,32.46-4.12,48.75-5.4,13.22-1.04,26.36-2.77,39.54-4.06,17.9-1.75,35.94-2.51,53.74-5.37,5.52-.88,9.7,1.82,10.15,6.28.47,4.67-3.23,8.19-8.79,8.71-22.07,2.07-44.14,4.04-66.16,6.71-20.91,2.54-41.76,5.42-62.61,8.34-27.44,3.86-54.83,8.06-82.24,12.14-4.73.7-5.77,2.82-4.78,8.53,1.35,7.81,4.27,52.85,4.59,57.64,1.55,22.86,2.29,45.77,3.51,68.64,2.32,43.55,2.73,87.08,1.8,130.65-2.01,36.4-6.74,72.37-15.41,107.88-10.7,43.86-31.2,82.11-62.69,114.39-16.18,16.59-34.43,30.57-54.54,42.18-5.43,3.14-11.5,5.08-16.49,8.98-10.66,5.28-21.45,10.23-32.47,14.64h0c-6.72,2.7-13.52,5.19-20.42,7.46-.12.04-.24.08-.35.12-1.09.32-2.19.63-3.31.93-21.79,5.97-49.64,10.65-69.3,12.51-1.18.11-2.32.22-3.43.3-.81-.08-1.71.1-2.49.17-.59.05-1.19.1-1.78.13-15.2,1.11-30.26-.14-45.37-2.02-22.07-2.74-42.19-10.48-60.79-22.41-6.78-4.35-12.18-10.27-16.86-16.83-.87-1.22-1.95-2.56-.68-4.03,1.1-1.28,2.44-.45,3.64.09,1.37.62,2.71,1.27,4.07,1.9,16.44,7.62,33.7,12.51,51.66,14.45,28.54,3.07,57.09,3.07,85.55-1.24.98-.16,1.96-.32,2.95-.49,23.68-4.15,50.32-12.77,62.89-17.24.44-.16.87-.31,1.27-.45,1.12.33,2.31-.73,3.34-1.16.52-.22,1.03-.44,1.55-.68.22-.09.41-.16.57-.24.08-.03.16-.06.22-.09.03-.01.05-.03.08-.05,20.42-8.87,39.48-20.07,56.65-34.4,4.9-2.24,8.5-6.1,12.23-9.8,3.61-3.15,7.36-6.16,10.8-9.48,18.77-18.15,34.71-38.5,47.29-61.4,11.32-20.62,20.65-42.03,25.42-65.21,1.34-4.26,2.71-8.51,2.99-13.01,1.87-10.96,5.07-21.63,6.77-32.63,1.95-12.71,3.61-25.43,4.1-38.28.99-1.54,1.25-3.22,1.01-5,.36-4.33.73-8.66,1.09-12.99,1.79-20.58,1.83-41.22,1.77-61.84-.13-41.89-1.22-83.75-5.67-125.46-1.45-13.65-2.09-27.39-3.13-41.09q-.78-10.3-11.19-8.63c-1.97.32-3.93.64-5.9.98-16.15,2.85-32.31,5.71-48.47,8.54-10.42,1.83-20.84,3.66-31.27,5.43-.26.04-.55.1-.89.15-.13.02-.27.05-.41.07-.13.02-.27.05-.41.07-2.59.45-5.19.87-7.78,1.3-.55.09-1.08.22-1.56.4-.01,0-.02,0-.03,0-21.45,3.9-65.69,12.11-90.9,16.73-.03,0-.07.01-.1.01-.27.04-.56.08-.87.14-.81.15-1.62.3-2.43.46-.35.06-.7.13-1.04.19-.46.09-.91.17-1.35.25-1.36.25-2.62.48-3.79.69-.48.08-.94.17-1.39.25-.45.08-.87.16-1.28.23-37.55,6.86-75.16,13.39-112.34,22.14-7.44,1.75-14.93,3.26-22.38,4.98-2.59.59-5,1.7-7.32,3.09-3.35,2.02-6.66,2.17-9.28-1.3-2.42-3.19-1.87-7.51,1.62-10.18,5.32-4.05,11.1-7.13,17.78-8.67,26.85-6.17,53.66-12.57,80.48-18.88,29.68-6.55,59.33-13.23,89.04-19.6,12.62-2.7,25.35-4.99,38.09-7.05,17.94-2.91,35.88-5.79,53.76-9.09,15.37-2.83,30.88-5.12,46.37-7.01,10.11-1.24,19.96-4.25,30.2-4.27,3.1-.01,2.83-2.1,2.66-4.16-3.57-41.76-5.87-83.61-4.43-125.49,1.65-48.2,12.2-94.26,38.68-135.42,24.57-38.2,59.17-63.3,102.49-76.66,28.63-8.84,57.91-10.96,87.24-6.39,38.45,6,71.67,23.64,100.42,49.78,7.02,6.39,13.52,13.3,19.58,20.62,1.62,1.96,3.63,3.98.99,6.4Z"/>
  <path class="cls-1" d="m128.55,939.81c-1.48.13-2.91.23-4.27.31h0c.59-.04,1.19-.09,1.78-.14.78-.07,1.68-.25,2.49-.17Z"/>
  <path class="cls-1" d="m225.36,918.49c-5.34,2.65-12.54,5.21-20.77,7.58.11-.04.23-.08.35-.12,6.9-2.27,13.7-4.76,20.42-7.46Z"/>
</svg>