<?xml version="1.0" encoding="UTF-8"?>
<svg id="Layer_1" data-name="Layer 1" xmlns="http://www.w3.org/2000/svg" viewBox="0 0 902.71 1085.63">
  <defs>
    <style>
      .cls-1 {
        fill: #2d2d2d;
      }
    </style>
  </defs>
  <path class="cls-1" d="m140.01,716.74c10.55-5.56,21.19-10.94,32.27-15.4.92-.37,1.79-.94,2.74-1.16,1.83-.43,3.64-.6,4.67,1.57,1.08,2.28-.44,3.55-1.99,4.43-5.01,2.85-10.13,5.5-15.21,8.22-1.97.47-3.4,1.84-4.95,3.02-1.19.05-1.74.87-2.18,1.82-3.09.03-4.97,2.3-7.31,3.8-22.97,14.67-43.4,32.31-62.36,51.87-33.47,34.52-49.49,75.31-45.89,123.51,1.18,15.73,4.55,31.06,10.91,45.42,22.32,50.4,59.65,80.92,115.85,85.24,28.56,2.2,55.21-4.51,79.15-20.28,25.69-16.92,45.32-39.91,62.69-64.99.62-.9,1.84-1.97,1.01-3.09-1-1.35-2.79-.86-4.19-.74-15.8,1.34-31.45.06-47.15-1.89-22.07-2.74-42.2-10.48-60.79-22.41-6.79-4.35-12.18-10.28-16.86-16.83-.87-1.22-1.96-2.56-.69-4.03,1.1-1.28,2.44-.45,3.64.09,1.36.62,2.71,1.27,4.07,1.9,16.44,7.62,33.69,12.51,51.66,14.44,28.54,3.08,57.08,3.07,85.55-1.24,2.07-.31,3.32-1.14,4.15-2.99,6.45-14.45,12.5-29.04,15.84-44.59,4.15-9.75,4.88-20.27,6.68-30.52,1.72-9.8,2.95-19.69,4.15-29.58,1.85-15.23,4.94-30.24,6.32-45.6,1.46-16.28,3.9-32.53,5.21-48.86,1.07-13.39,1.94-26.8,2.53-40.24.48-11.05,1.79-22.08,1.85-33.18,1.62-5.53.49-19.84.51-21.39.13-.12.18-.28.14-.46.95-5.52.75-58.72.35-76.1.23-.3.21-.59-.06-.87-.13-.47-.25-.93-.38-1.4,0,0-.11-.35-.11-.35-.04-4.62-.09-23.93-.62-28.96-1.91-22.24-2.15-44.6-4.9-66.8-1.24-10-1.82-20.1-2.39-30.17-.2-3.64-1.26-4.41-4.85-3.74-41.29,7.65-82.71,14.58-123.62,24.21-7.44,1.75-14.93,3.26-22.38,4.98-2.59.6-5.01,1.7-7.32,3.09-3.36,2.02-6.66,2.17-9.29-1.3-2.41-3.19-1.86-7.51,1.63-10.18,5.32-4.06,11.1-7.14,17.78-8.67,26.85-6.17,53.66-12.57,80.48-18.89,29.68-6.55,59.33-13.23,89.04-19.59,12.62-2.7,25.35-4.99,38.09-7.06,17.94-2.91,35.88-5.78,53.76-9.08,15.37-2.84,30.88-5.12,46.37-7.01,10.11-1.24,19.95-4.25,30.2-4.27,3.1,0,2.83-2.1,2.65-4.16-3.56-41.76-5.87-83.61-4.43-125.49,1.65-48.2,12.2-94.25,38.68-135.41,24.57-38.2,59.17-63.3,102.5-76.66,28.63-8.83,57.91-10.96,87.24-6.38,38.44,6,71.67,23.64,100.41,49.77,7.03,6.39,13.52,13.3,19.58,20.62,1.63,1.97,3.64,3.99.99,6.4-2.57,2.34-4.52.49-6.33-1.44-31.04-33.18-70.25-51.7-114.09-59.03-74.06-12.37-140.44,21.95-178.57,86.39-11.97,20.22-19.29,42.14-23.51,65.35-3.19,17.56-5.31,35.16-6.85,52.91-2.19,25.27-.08,50.49,0,75.73.04,12.29,1.69,24.51,1.18,36.81-.12,2.92.52,5.9.96,8.82.48,3.23,3.11,2.01,4.77,1.83,7.93-.88,15.83-2.04,23.74-3.06,15.29-1.97,30.58-3.99,45.89-5.83,16.23-1.95,32.46-4.12,48.75-5.41,13.21-1.04,26.36-2.77,39.53-4.06,17.91-1.75,35.94-2.51,53.74-5.37,5.52-.89,9.7,1.82,10.15,6.28.47,4.67-3.23,8.18-8.79,8.71-22.07,2.07-44.14,4.04-66.16,6.71-20.91,2.54-41.76,5.42-62.6,8.34-27.44,3.85-54.84,8.05-82.24,12.13-4.73.7-5.77,2.82-4.78,8.53,1.35,7.81,4.27,52.85,4.59,57.63,1.54,22.86,2.29,45.77,3.51,68.64,2.32,43.55,2.73,87.08,1.8,130.64-2.01,36.41-6.74,72.37-15.41,107.89-10.7,43.86-31.21,82.11-62.69,114.39-16.18,16.59-34.43,30.57-54.54,42.18-5.43,3.14-11.5,5.07-16.5,8.97-17.15,8.51-34.68,16.13-52.9,22.1-1.81.59-3.25,1.31-3.94,3.36-1.57,4.7-3.38,9.31-5.11,13.96-3.99,10.77-7.95,21.62-13.52,31.65-15.89,28.61-37.04,52.57-63.56,71.96-20.34,14.87-42.6,25.65-66.75,31.92-36.43,9.46-73.01,9.17-109.39-1.35C54.66,1058.04,6.76,1000.04.72,930.37c-2.87-33.05,2.77-64.59,17.44-94.39,14.67-29.82,37.03-53.51,61.11-75.72,18.43-17,39.03-31.06,60.74-43.51Zm409.89-7.42c1.34-4.26,2.72-8.51,3-13.01,1.87-10.95,5.07-21.62,6.76-32.63,1.96-12.71,3.61-25.43,4.11-38.28.99-1.54,1.25-3.22,1-5,.37-4.33.73-8.66,1.1-12.98,1.79-20.58,1.83-41.22,1.76-61.85-.13-41.89-1.21-83.74-5.66-125.45-1.46-13.65-2.1-27.39-3.13-41.09q-.78-10.29-11.19-8.63c-1.97.32-3.93.64-5.89.98-16.16,2.84-32.31,5.71-48.47,8.54-13.58,2.38-27.16,4.77-40.76,7.02-2.85.47-4.96,2.03-4.91,4.59.06,3.2-1.23,6.21-1.15,9.15.23,9.06-3.12,17.58-3.31,26.53-.07,3.29-.57,6.67-1.45,9.84-2.67,9.66-2.74,19.68-4.32,29.48-2.02,15.66-3.82,31.35-6.13,46.96-2.43,16.42-3.81,32.96-6.85,49.32-2.01,10.81-7.89,69.19-9.81,87.32-1.37,12.97-3.08,25.98-3.88,39.05-.66,10.74-2.49,21.41-3.47,32.14-1.24,13.53-2.07,27.09-3.2,40.63-1.9,22.59-4.07,45.16-5.81,67.76-1.49,19.41-3.36,38.77-6.91,57.93-.23,1.25-1.36,2.77-.29,3.77,1.32,1.24,2.8-.2,4.06-.74,21.34-9.06,41.23-20.56,59.07-35.46,4.9-2.24,8.5-6.1,12.23-9.8,3.61-3.15,7.36-6.16,10.8-9.48,18.76-18.14,34.71-38.5,47.28-61.4,11.32-20.61,20.65-42.03,25.42-65.21Z"/>
  <path class="cls-1" d="m371.81,533.9s.11.36.11.35c0,0-.11-.35-.11-.35Z"/>
  <path class="cls-1" d="m157.54,717.43c.29,1.83-.64,2.2-2.18,1.82.44-.95,1-1.76,2.18-1.82Z"/>
  <path class="cls-1" d="m332.98,866.4c.01-.15.02-.3.03-.45.21.09.42.19.63.28-.09.12-.16.31-.27.34-.11.03-.26-.11-.39-.18Z"/>
</svg>