<?xml version="1.0" encoding="UTF-8"?>
<svg id="Layer_1" data-name="Layer 1" xmlns="http://www.w3.org/2000/svg" viewBox="0 0 371.54 371.13">
  <defs>
    <style>
      .cls-1 {
        fill: #f7f7ff;
      }

      .cls-2 {
        fill: #ffdf64;
      }

      .cls-3 {
        fill: #ffb844;
      }

      .cls-4 {
        fill: #91323c;
      }

      .cls-5 {
        fill: #b9bde0;
      }

      .cls-6 {
        fill: #aeb2d4;
      }

      .cls-7 {
        fill: #cacfe8;
      }

      .cls-8 {
        fill: #d63d3f;
      }

      .cls-9 {
        fill: #d3d9f2;
      }

      .cls-10 {
        fill: #23a564;
      }

      .cls-11 {
        fill: #20a463;
      }

      .cls-12 {
        fill: #1fa463;
      }

      .cls-13 {
        fill: #28be77;
      }

      .cls-14 {
        fill: #29be77;
      }

      .cls-15 {
        fill: #3b7cc4;
      }

      .cls-16 {
        fill: #4a9bf6;
      }
    </style>
  </defs>
  <path class="cls-13" d="m.44,317.29c-.04-.87-.11-1.74-.11-2.61,0-86.08,0-172.16,0-258.24,0-.87.08-1.74.12-2.61,1.35-17.6,19.01-31.15,35.58-30.85,3.55.06,7.21-.84,10.67.77.21,2.47-2.02,2.92-3.43,3.87-13,8.77-20.85,20.86-23.48,36.28-3.94,23.15,10.22,48.05,32.19,56.82,29.16,11.63,61.41-3.51,70.61-33.3,1.5-4.86,2.58-9.91,2.42-15.08-.2-6.9-4.41-11.34-11.24-11.44-12.34-.18-24.69-.02-37.03-.08-2.51-.01-3.65.88-3.61,3.49.08,4.99.08,9.98,0,14.96-.04,2.54.94,3.59,3.53,3.56,6.11-.09,12.22-.08,18.33,0,4.86.06,5.71,1.47,3.12,5.6-11.35,18.03-38.85,20.24-51.75.12-11-17.16-4.16-37.93,14.8-45.43,11.53-4.57,22.36-2.13,31.71,5.91,2.27,1.95,3.74,2.2,5.98.25,3.66-3.19,7.52-6.16,11.37-9.13,1.93-1.48,2.07-2.76.29-4.54-3.36-3.37-6.85-6.52-10.91-9.04-1-.62-3.58-1.42-.98-3.38,1.95-.6,3.96-.44,5.94-.44,47.44-.01,94.88-.01,142.31,0,2.22,0,4.5-.3,6.6.74.71.6.8,1.19-.09,1.71-.98.58-2.08.83-3.19,1-34.79,5.2-63.26,33.57-68.66,70-1.15,7.77-.31,15.38.36,23.05-1.96,10.56-.72,20.86,2.5,30.99.06.38.06.77.02,1.15-.27,1.87-1.66,3.01-2.88,4.23-57.32,57.34-114.65,114.67-172,171.97-1.17,1.16-2.11,2.92-4.26,2.5-3.55-3.53-4.17-8.18-4.83-12.8Z"/>
  <path class="cls-9" d="m371.4,54.55c.02,18.94.06,37.88.06,56.82,0,67.29,0,134.58,0,201.87,0,1.12-.04,2.24-.06,3.36-1.02,19.17-20.45,32.27-37,31.75-15.03-.48-30.08.09-45.11-.2-.39-.03-.78-.12-1.15-.24-1.55-.63-2.57-1.92-3.71-3.06-35.99-35.98-71.98-71.96-107.96-107.96-1.05-1.05-2.27-1.96-2.82-3.43-.03-1.57,1.11-2.45,2.06-3.4,10.03-10.06,20.07-20.12,30.15-30.14,1.12-1.11,2.19-2.51,4.14-1.92,4.93,5.13,8.51,11.3,12.92,16.84,12.03,15.1,24.31,29.96,37.72,43.87,1.96,2.04,3.48,2.8,5.78.34,27.2-29.1,52.77-59.43,70.99-95.19,5.51-10.81,9.45-22.27,9.14-34.7-.1-4.1-.98-8.16-.81-12.28.2-6.94.88-13.78-.2-20.81-1.39-8.99-4.59-17.27-7.71-25.65-.03-3.69,3.2-5.29,5.28-7.27,6.68-6.36,13.02-13.05,19.66-19.43,1.05-1.01,1.99-2.31,3.74-2.15,3.32,2.56,3.83,6.38,4.52,10.11.18.95-.24,1.97.35,2.87Z"/>
  <path class="cls-12" d="m254.01,24.52c-.95-.85-2.13-.57-3.22-.57-50.62,0-101.24,0-151.87,0-.5,0-1,.05-1.49.08-1.44.79-2.64-.11-3.87-.6-14.28-5.65-28.56-5.95-42.84,0-1.22.51-2.43,1.4-3.86.58-6.68.08-13.41-.78-19.99,1.21C13.2,29.36,4.79,38.49,1.09,52.16c-.16.58-.43,1.12-.65,1.68-.03-7.85-1.07-15.86.14-23.52C2.46,18.48,9.14,9.31,20.12,3.75,25.05,1.25,30.29,0,35.82,0,134.42,0,233.02,0,331.63,0c1.24,0,2.49.1,3.73.15.49,1.18-.33,1.9-1,2.58-6.99,7.06-13.96,14.15-21.11,21.05-.45.43-1.01.71-1.62.92-.41.13-.83.2-1.25.23-10.04.32-20.07.13-30.11.08-2.71-.01-5.45-.34-8.13.44-5.41.51-10.82-1.03-16.24.01-.71.14-1.45-.26-1.89-.95Z"/>
  <path class="cls-15" d="m238.96,371.1c-66.77.01-133.54.03-200.31.03-.62,0-1.24-.1-1.86-.15-.08-1.28.81-2.05,1.59-2.83,7.08-7.01,13.96-14.22,21.22-21.07.74-.49,1.55-.76,2.43-.86,1.61-.24,3.23-.22,4.85-.22,47.42,0,94.84,0,142.25,0,1.49,0,2.99-.03,4.46.16.42.02.84.08,1.25.17.6.16,1.19.4,1.64.83,7.39,7.06,14.54,14.36,21.71,21.64.59.6,1.22,1.31.76,2.31Z"/>
  <path class="cls-7" d="m238.96,371.1c-5.25-6.41-11.56-11.77-17.25-17.76-1.95-2.06-3.92-4.1-5.89-6.14,1.28-1.29,2.95-1.18,4.55-1.19,20.75-.05,41.49-.03,62.24-.02,1.77,0,3.47.21,5,1.19.27.01.55.03.82.04,4.29,2.6,7.25,6.64,10.82,10.02,3.49,3.31,6.85,6.76,10.21,10.21.98,1.01,2.44,1.82,2.16,3.62-24.22.01-48.44.03-72.66.04Z"/>
  <path class="cls-6" d="m311.63,371.06c-6.76-6.85-13.52-13.69-20.26-20.55-1.03-1.05-1.95-2.2-2.93-3.3,15.55,0,31.09-.16,46.64.02,17.11.2,33.06-12.57,35.73-29.74.05-.32.39-.6.6-.9-.38,9.54,1.19,19.16-1.36,28.63-3.88,14.42-18.49,25.86-33.36,25.9-8.35.03-16.71-.04-25.06-.07Z"/>
  <path class="cls-3" d="m59.42,347.84c-6.62,6.71-13.24,13.42-19.84,20.14-.95.97-1.85,1.99-2.77,2.99-19.34,1.29-37.57-16.75-36.32-35.94,1.43-2.21,2.57-4.79,5.9-4.53,2.21,1.47,3.67,3.68,5.51,5.52,6.78,6.78,15.02,9.96,24.49,10.12,6.34.11,12.68-.04,19.01.06,1.46.02,3.34-.53,4.01,1.63Z"/>
  <path class="cls-3" d="m312.15,23.8c7.74-7.88,15.47-15.76,23.21-23.64,19.25-1.27,37.21,16.87,35.95,36.32-.89,2.36-2.2,4.27-5.01,4.49-1.63-.29-2.47-1.59-3.42-2.72-7.8-9.25-17.73-13.64-29.84-13.3-5.46.15-10.93.06-16.4,0-1.56-.02-3.28.33-4.5-1.15Z"/>
  <path class="cls-10" d="m5.34,330.62c-1.62,1.47-3.24,2.95-4.85,4.42-.01-5.92-.03-11.83-.04-17.75,1.52,4.25,2.67,8.65,5.08,12.54.41.37.35.63-.18.79Z"/>
  <path class="cls-5" d="m366.89,40.39c1.47-1.3,2.95-2.61,4.42-3.91.03,6.02.06,12.05.09,18.07-1.59-4.35-2.04-9.17-5.37-12.79-.12-.71.53-.94.86-1.36Z"/>
  <path class="cls-8" d="m254.01,24.52c5.99-1.04,11.98-.15,17.97-.05,10.62-.37,20.36,2.67,29.62,7.58,14.22,7.49,25.88,17.77,34.31,31.57,1.1,1.8,2.31,3.54,2.35,5.76,5.8,11.66,8.89,24.03,9.19,37.03.08,3.66-.55,7.33-.85,10.99-1.55,12.28-7.23,23-13.14,33.53-14.29,25.45-32.48,48.06-51.67,69.92-4.77,5.43-9.62,10.77-14.62,15.99-3.03,3.16-3.93,3.17-7-.08-12.85-13.58-25.1-27.67-36.62-42.4-1.46-1.87-2.87-3.77-4.44-5.54-10.68-14.08-20.33-28.82-28.71-44.39-4.18-8.05-8.5-16.05-9.08-25.39-2.29-9.7-1.98-19.42.44-29,8.59-33.97,29.86-55.41,63.87-64.07,2.74-.7,5.58-.97,8.38-1.44Z"/>
  <path class="cls-2" d="m5.34,330.62c.06-.26.12-.52.18-.79,1.1-1.01,2.23-1.98,3.28-3.03,57.36-57.35,114.71-114.7,172.07-172.06.97-.97,1.97-1.9,2.96-2.85,1.29.08,1.53,1.18,1.87,2.05,6.06,15.52,14.92,29.46,24.21,43.17.13.38.04.71-.22.99-.33.17-.73.26-.98.51-11.58,11.57-23.41,22.89-34.6,34.85.12,1.23-.92,1.67-1.6,2.34-10.55,10.4-20.96,20.94-31.46,31.39-.98.97-1.85,2.02-2.6,3.17-16.34,16.76-33.05,33.14-49.56,49.74-7.9,7.94-15.85,15.85-23.76,23.78-1.32,1.33-2.61,2.68-4.47,3.27-.42.23-.83.46-1.25.69-1.03-1.04-2.34-.62-3.53-.63-6.33-.04-12.65-.02-18.98-.02-12.54.02-22.38-5.29-29.93-15.13-.43-.57-1.08-.97-1.63-1.45Z"/>
  <path class="cls-1" d="m46.86,24.02c7.71-3.46,15.66-6.08,24.2-6.02,9.2.07,18.04,2.01,26.37,6.03,5.5,3.43,10.73,7.19,15.09,12.07,1.4,1.56,1.41,2.4-.34,3.73-4.96,3.76-9.82,7.66-14.58,11.67-1.61,1.36-2.47,1.23-3.85-.28-5.88-6.43-13.48-9.37-21.98-9.24-13.83.21-24.61,8.96-28.43,21.73-4.37,14.56,3.83,29.98,17.06,35.68,14.34,6.18,30.51-.26,37.36-12.16.54-.93,1.71-1.92,1.09-2.96-.6-1.01-2.04-.44-3.1-.45-6.85-.04-13.71-.13-20.56.04-2.5.06-3.14-.73-3.08-3.14.16-6.1.11-12.21.02-18.32-.03-1.87.43-2.6,2.47-2.59,13.21.08,26.42-.04,39.63.08,6.82.06,11.89,5.38,11.77,12.37-.39,23.87-15.64,45.17-40.34,51.7-28.55,7.54-56.9-9.49-65.15-36.79-7.33-24.25,3.59-49.45,24.22-61.71.74-.44,1.43-.97,2.14-1.45Z"/>
  <path class="cls-3" d="m209.72,197.51c-4.03-3.94-6.67-8.89-9.58-13.58-6.33-10.21-12.03-20.77-16.31-32.03-.02-.17-.05-.35-.06-.52,1.67-3.18,3.62-6.06,7.4-7,4.75,7.67,8.88,15.71,14.05,23.13,4.8,6.89,9.6,13.78,14.4,20.67-2.39,4.07-5.15,7.75-9.89,9.34Z"/>
  <path class="cls-11" d="m191.17,144.37c-2.47,2.33-4.94,4.67-7.4,7-2.47-7.7-4.41-15.5-3.85-23.68.2-2.92.41-5.85,1.4-8.65,2.4,8.79,5.66,17.24,9.85,25.34Z"/>
  <path class="cls-1" d="m137.87,269.83c2.1-3.12,5.03-5.46,7.65-8.08,9.48-9.47,19.05-18.86,28.58-28.28.82.76,1.68,1.49,2.47,2.28,36.21,36.2,72.42,72.41,108.62,108.63.87.87,1.62,1.86,2.43,2.8-23.93,0-47.86.02-71.79.02-.19-.05-.39-.09-.59-.11-1.73-.54-2.94-1.79-4.18-3.03-23.55-23.56-47.11-47.11-70.65-70.68-1.03-1.04-2.34-1.91-2.54-3.56Z"/>
  <path class="cls-6" d="m209.72,197.51c3.3-3.11,6.59-6.22,9.89-9.33,7.93,9.58,15.74,19.25,23.82,28.7,5.9,6.9,12.19,13.47,18.26,20.22,1.27,1.42,2.19,2.03,3.82.27,27.88-30.21,54.68-61.21,73.17-98.41,3.43-6.91,5.53-14.28,7.91-21.55,3.85,22.42-4.55,41.68-15.52,60.3-10.04,17.05-21.69,32.97-34.2,48.24-9.76,11.91-19.8,23.59-30.58,34.62-2.19,2.24-3.34,1.86-5.28-.16-14.07-14.58-27.09-30.04-39.5-46.05-4.11-5.3-8.03-10.72-11.83-16.25.03-.2.04-.4.04-.6Z"/>
  <path class="cls-2" d="m338.26,69.38c-8.44-15.73-20.58-27.76-36.29-36.22,2.72-3.54,5.92-6.6,9.5-9.27.23-.03.46-.06.69-.09,7.57.05,15.14.16,22.71.12,12.28-.06,21.93,5.19,29.56,14.52.71.87,1.12,1.96,2.47,1.94-.29.45-.57.91-.86,1.36-9.26,9.21-18.51,18.41-27.77,27.62Z"/>
  <path class="cls-14" d="m311.46,23.89c-2.97,3.29-5.91,6.61-9.5,9.27-9.39-4.97-19.53-7.4-29.99-8.69,1.22-.94,2.65-.5,3.98-.51,11.84-.05,23.67-.05,35.51-.07Z"/>
  <path class="cls-16" d="m137.87,269.83c.67.55,1.39,1.05,1.99,1.65,24.65,24.63,49.29,49.27,73.92,73.92.52.52.97,1.12,1.45,1.68-13.19.03-26.38.1-39.58.1-38.33,0-76.67-.02-115-.04.56-.65,1.09-1.35,1.7-1.96,24.7-24.71,49.41-49.42,74.12-74.12.44-.44.92-.83,1.38-1.24Z"/>
  <path class="cls-4" d="m263.72,71.83c19.66,0,36.24,16.19,35.82,35.75-.44,20.34-15.22,35.71-35.82,35.76-20.48.05-35.62-15.7-35.87-36.11-.23-19.21,16.39-35.4,35.87-35.4Z"/>
</svg>